<svg width="1238" height="445" viewBox="0 0 1238 445" fill="none" xmlns="http://www.w3.org/2000/svg">
<g clip-path="url(#clip0_19544_36789)">
<rect width="1238" height="445" rx="16" fill="white" fill-opacity="0.5"/>
<g opacity="0.3">
<line x1="-3.73872e-08" y1="80.5" x2="1238" y2="80.4999" stroke="#285DD9"/>
<line x1="-3.73872e-08" y1="89.5" x2="1238" y2="89.4999" stroke="#285DD9"/>
<line x1="-3.73872e-08" y1="171.5" x2="1238" y2="171.5" stroke="#285DD9"/>
<line x1="-3.73872e-08" y1="180.5" x2="1238" y2="180.5" stroke="#285DD9"/>
<line x1="-3.73872e-08" y1="262.5" x2="1238" y2="262.5" stroke="#285DD9"/>
<line x1="-3.73872e-08" y1="271.5" x2="1238" y2="271.5" stroke="#285DD9"/>
<line x1="-3.73872e-08" y1="353.501" x2="1238" y2="353.501" stroke="#285DD9"/>
<line x1="-3.73872e-08" y1="362.501" x2="1238" y2="362.501" stroke="#285DD9"/>
<line x1="-3.73872e-08" y1="444.501" x2="1238" y2="444.501" stroke="#285DD9"/>
<line x1="8.50024" y1="1547" x2="8.50002" y2="5.92429e-08" stroke="#285DD9"/>
<line x1="90.5002" y1="1547" x2="90.5" y2="5.92429e-08" stroke="#285DD9"/>
<line x1="99.5005" y1="1547" x2="99.5003" y2="5.92429e-08" stroke="#285DD9"/>
<line x1="181.5" y1="1547" x2="181.5" y2="5.92429e-08" stroke="#285DD9"/>
<line x1="190.5" y1="1547" x2="190.5" y2="5.92429e-08" stroke="#285DD9"/>
<line x1="272.5" y1="1547" x2="272.5" y2="5.92429e-08" stroke="#285DD9"/>
<line x1="281.501" y1="1547" x2="281.501" y2="5.92429e-08" stroke="#285DD9"/>
<line x1="363.501" y1="1547" x2="363.501" y2="5.92429e-08" stroke="#285DD9"/>
<line x1="372.501" y1="1547" x2="372.501" y2="5.92429e-08" stroke="#285DD9"/>
<line x1="454.501" y1="1547" x2="454.501" y2="5.92429e-08" stroke="#285DD9"/>
<line x1="463.501" y1="1547" x2="463.501" y2="5.92429e-08" stroke="#285DD9"/>
<line x1="545.501" y1="1547" x2="545.501" y2="5.92429e-08" stroke="#285DD9"/>
<line x1="554.501" y1="1547" x2="554.501" y2="5.92429e-08" stroke="#285DD9"/>
<line x1="636.501" y1="1547" x2="636.501" y2="5.92429e-08" stroke="#285DD9"/>
<line x1="645.501" y1="1547" x2="645.501" y2="5.92429e-08" stroke="#285DD9"/>
<line x1="727.501" y1="1547" x2="727.501" y2="5.92429e-08" stroke="#285DD9"/>
<line x1="736.502" y1="1547" x2="736.501" y2="5.92429e-08" stroke="#285DD9"/>
<line x1="818.501" y1="1547" x2="818.501" y2="5.92429e-08" stroke="#285DD9"/>
<line x1="827.502" y1="1547" x2="827.501" y2="5.92429e-08" stroke="#285DD9"/>
<line x1="909.502" y1="1547" x2="909.501" y2="5.92429e-08" stroke="#285DD9"/>
<line x1="918.502" y1="1547" x2="918.502" y2="5.92429e-08" stroke="#285DD9"/>
<line x1="1000.5" y1="1547" x2="1000.5" y2="5.92429e-08" stroke="#285DD9"/>
<line x1="1009.5" y1="1547" x2="1009.5" y2="5.92429e-08" stroke="#285DD9"/>
<line x1="1091.5" y1="1547" x2="1091.5" y2="5.92429e-08" stroke="#285DD9"/>
<line x1="1100.5" y1="1547" x2="1100.5" y2="5.92429e-08" stroke="#285DD9"/>
<line x1="1182.5" y1="1547" x2="1182.5" y2="5.92429e-08" stroke="#285DD9"/>
<line x1="1191.5" y1="1547" x2="1191.5" y2="5.92429e-08" stroke="#285DD9"/>
</g>
</g>
<defs>
<clipPath id="clip0_19544_36789">
<rect width="1238" height="445" rx="16" fill="white"/>
</clipPath>
</defs>
</svg>
